<svg xmlns="http://www.w3.org/2000/svg" xmlns:xlink="http://www.w3.org/1999/xlink" width="295" height="200" viewBox="0 0 295 200">
  <defs>
    <linearGradient id="linear-gradient" x1="0.09" y1="0.01" x2="1.116" y2="1.086" gradientUnits="objectBoundingBox">
      <stop offset="0" stop-color="#334bed"/>
      <stop offset="1" stop-color="#5482fa"/>
    </linearGradient>
  </defs>
  <g id="otp_two-factor" data-name="otp &amp; two-factor" transform="translate(-755.832 -787)">
    <g id="Group_5455" data-name="Group 5455" transform="translate(765 982.998)">
      <rect id="Rectangle_1135" data-name="Rectangle 1135" width="12.371" height="3.638" rx="1.819" fill="#134de9"/>
      <rect id="Rectangle_1136" data-name="Rectangle 1136" width="26.925" height="3.638" rx="1.819" transform="translate(247.25 0.364)" fill="#134de9"/>
      <rect id="Rectangle_1137" data-name="Rectangle 1137" width="221.053" height="3.638" rx="1.819" transform="translate(16.737)" fill="#134de9"/>
    </g>
    <g id="Group_5456" data-name="Group 5456" transform="translate(755.832 787.001)">
      <path id="Path_298" data-name="Path 298" d="M429.871,612.8c-23.836-39.255-66.453-11.631-93.179,23.989s-65.731,45.8-119.9,25.443S146,730.564,146,730.564H413.98C434.927,715.3,453.707,652.055,429.871,612.8Z" transform="translate(-146 -534.854)" fill="#e1eaff"/>
      <path id="Path_299" data-name="Path 299" d="M287.469,564.53s38.608,16.754,48.077-4.371-37.151-36.422-50.263-34.237S264.159,555.789,287.469,564.53Z" transform="translate(-181.461 -514.956)" fill="#e1eaff"/>
      <path id="Path_300" data-name="Path 300" d="M485.66,529.816c2.762-5.809-6.006-16.653-15.929-9.821,0,0-17.338,10.685-11.575,20.292S482.9,535.625,485.66,529.816Z" transform="translate(-232.951 -517.809)" fill="#e1eaff"/>
      <path id="Path_301" data-name="Path 301" d="M185.946,718.186l1.262,2.308a5.513,5.513,0,0,0,2.19,2.19l2.308,1.262-2.308,1.262a5.52,5.52,0,0,0-2.19,2.19l-1.262,2.308-1.262-2.308a5.514,5.514,0,0,0-2.19-2.19l-2.308-1.262,2.308-1.262a5.507,5.507,0,0,0,2.19-2.19Z" transform="translate(-155.283 -568.612)" fill="#134de9"/>
      <path id="Path_302" data-name="Path 302" d="M466.946,647.186l1.262,2.308a5.513,5.513,0,0,0,2.19,2.19l2.308,1.262-2.308,1.262a5.52,5.52,0,0,0-2.19,2.19l-1.262,2.308-1.262-2.308a5.514,5.514,0,0,0-2.19-2.19l-2.308-1.262,2.308-1.262a5.507,5.507,0,0,0,2.19-2.19Z" transform="translate(-233.622 -548.842)" fill="#134de9"/>
      <path id="Path_303" data-name="Path 303" d="M410.71,535.521l1.262,2.308a5.508,5.508,0,0,0,2.19,2.19l2.308,1.262-2.308,1.262a5.509,5.509,0,0,0-2.19,2.19l-1.262,2.308-1.262-2.308a5.516,5.516,0,0,0-2.19-2.19l-2.308-1.262,2.308-1.262a5.515,5.515,0,0,0,2.19-2.19Z" transform="translate(-218.009 -517.62)" fill="#134de9"/>
      <path id="Path_304" data-name="Path 304" d="M133.71,579.521l1.262,2.308a5.509,5.509,0,0,0,2.19,2.19l2.308,1.262-2.308,1.262a5.509,5.509,0,0,0-2.19,2.19l-1.262,2.308-1.262-2.308a5.515,5.515,0,0,0-2.19-2.19l-2.308-1.262,2.308-1.262a5.516,5.516,0,0,0,2.19-2.19Z" transform="translate(-113.099 -530.001)" fill="#134de9"/>
      <g id="Group_140" data-name="Group 140" transform="translate(32.231 94.95)">
        <g id="Group_139" data-name="Group 139">
          <g id="Group_138" data-name="Group 138">
            <path id="Path_335" data-name="Path 335" d="M190.768,650.687c1.149,0,1.42-.814,1.42-1.541a18.3,18.3,0,0,0-.125-1.87c-.063-.661-.125-1.255-.125-1.937a2.481,2.481,0,0,1,2.632-2.817h.251v1.144h-.313c-.878,0-1.233.66-1.233,1.651a13.909,13.909,0,0,0,.125,1.672c.042.572.1,1.1.1,1.628.021,1.717-.543,2.311-1.441,2.575v.044c.9.286,1.462.881,1.441,2.619,0,.55-.062,1.1-.1,1.651a14.657,14.657,0,0,0-.125,1.694c0,.991.313,1.673,1.254,1.673h.292v1.144h-.272c-1.378,0-2.611-.726-2.611-2.817,0-.66.063-1.321.125-1.959s.125-1.276.125-1.892c0-.7-.272-1.562-1.42-1.562Z" transform="translate(-190.768 -642.523)" fill="#7194f2"/>
            <path id="Path_336" data-name="Path 336" d="M218.489,651.787c-1.149,0-1.42.859-1.42,1.563,0,.616.063,1.254.125,1.892s.126,1.3.126,1.959c0,2.091-1.233,2.817-2.611,2.817h-.272v-1.144h.293c.94-.11,1.253-.682,1.253-1.673,0-.594-.063-1.144-.1-1.694a14.632,14.632,0,0,1-.125-1.651c-.021-1.738.543-2.332,1.441-2.619v-.044c-.9-.265-1.462-.858-1.441-2.575a15.04,15.04,0,0,1,.125-1.628c.042-.528.1-1.078.1-1.672,0-.991-.355-1.541-1.233-1.651h-.313v-1.144h.251a2.482,2.482,0,0,1,2.632,2.817c0,.682-.063,1.276-.126,1.937a18.3,18.3,0,0,0-.125,1.87c0,.726.272,1.541,1.42,1.541Z" transform="translate(-197.195 -642.523)" fill="#7194f2"/>
          </g>
        </g>
        <path id="Path_337" data-name="Path 337" d="M207.567,655.07v-4.233l-3.48-2.117-3.48,2.117v4.233l3.48,2.116Z" transform="translate(-193.44 -644.206)" fill="#fc5e5e"/>
      </g>
      <g id="Group_5453" data-name="Group 5453" transform="translate(63.09 23.734)">
        <g id="Group_5450" data-name="Group 5450">
          <g id="Group_5449" data-name="Group 5449">
            <g id="Group_5445" data-name="Group 5445" transform="translate(0 11.643)">
              <g id="Group_5444" data-name="Group 5444">
                <g id="Group_5443" data-name="Group 5443">
                  <g id="Group_5442" data-name="Group 5442">
                    <path id="Path_7086" data-name="Path 7086" d="M362.3,179.525s-32.119-7.695-29.55-46.171c0,0-16.3-12.5-50.106-12.81v-.014c-.218,0-.426.006-.642.007s-.425-.007-.643-.007v.014c-33.808.314-50.106,12.81-50.106,12.81,2.569,38.476-29.55,46.171-29.55,46.171,18.789,93.779,79.881,101.322,80.3,101.309C282.424,280.848,343.516,273.3,362.3,179.525Z" transform="translate(-201.708 -120.53)" fill="#7194f2"/>
                    <path id="Path_7087" data-name="Path 7087" d="M354.17,196.561s-24.154-5.784-22.221-34.7c0,0-12.256-9.392-37.68-9.627v-.011c-.163,0-.32.005-.483.006s-.32-.006-.483-.006v.011c-25.423.236-37.68,9.627-37.68,9.627,1.932,28.916-22.221,34.7-22.221,34.7,14.13,70.481,60.07,76.15,60.385,76.139C294.1,272.711,340.04,267.042,354.17,196.561Z" transform="translate(-213.487 -132.309)" fill="url(#linear-gradient)"/>
                  </g>
                </g>
              </g>
            </g>
            <g id="Group_5448" data-name="Group 5448" transform="translate(26.268)">
              <g id="Group_5446" data-name="Group 5446">
                <path id="Path_7088" data-name="Path 7088" d="M267.647,239.147h36.862a6.888,6.888,0,0,0,6.887-6.888V113.953a6.888,6.888,0,0,0-6.887-6.888H254.647a6.888,6.888,0,0,0-6.888,6.888v96.359" transform="translate(-245.091 -103.882)" fill="#fc5e5e"/>
                <line id="Line_172" data-name="Line 172" y1="29.36" transform="translate(0 70.789)" fill="none" stroke="#000" stroke-miterlimit="10" stroke-width="1"/>
                <path id="Path_7089" data-name="Path 7089" d="M304.514,102H252a8.487,8.487,0,0,0-8.487,8.487v91.662q1.287,3.271,2.668,6.28V112.07a6.888,6.888,0,0,1,6.888-6.888h49.862a6.888,6.888,0,0,1,6.887,6.888V230.377a6.888,6.888,0,0,1-6.887,6.888H266.069c1.171,1.132,2.339,2.189,3.5,3.183h34.944A8.487,8.487,0,0,0,313,231.959V110.487A8.487,8.487,0,0,0,304.514,102Z" transform="translate(-243.513 -102)" fill="#fff"/>
              </g>
              <path id="Path_7090" data-name="Path 7090" d="M309.762,189.579v10.058l-7.046-10.058H261.027a6.7,6.7,0,0,1-6.962-6.4V170.607a5.981,5.981,0,0,1,6.216-5.714h43.182a6.061,6.061,0,0,1,6.3,5.791Z" transform="translate(-247.434 -125.374)" fill="#fff"/>
              <rect id="Rectangle_1743" data-name="Rectangle 1743" width="34.479" height="14.853" rx="6.813" transform="translate(16.974 71.08)" fill="#fecc15"/>
              <rect id="Rectangle_1744" data-name="Rectangle 1744" width="28.114" height="2.652" rx="1.217" transform="translate(22.809 5.835)" fill="#fff"/>
              <circle id="Ellipse_460" data-name="Ellipse 460" cx="1.326" cy="1.326" r="1.326" transform="translate(15.913 5.835)" fill="#fff"/>
              <g id="Group_5447" data-name="Group 5447" transform="translate(11.147 46.361)">
                <path id="Path_7091" data-name="Path 7091" d="M266.6,175.783l-.351,3.147,3.188-.89.282,2.155-2.906.2,1.906,2.539-1.94,1.034-1.333-2.676-1.171,2.659-2.017-1.017,1.889-2.539-2.889-.222.334-2.138,3.12.89-.351-3.147Z" transform="translate(-261.253 -175.783)" fill="#001893"/>
                <path id="Path_7092" data-name="Path 7092" d="M281.776,175.783l-.351,3.147,3.188-.89.283,2.155-2.906.2,1.906,2.539-1.94,1.034-1.333-2.676-1.171,2.659-2.016-1.017,1.889-2.539-2.89-.222.334-2.138,3.12.89-.351-3.147Z" transform="translate(-266.895 -175.783)" fill="#001893"/>
                <path id="Path_7093" data-name="Path 7093" d="M296.956,175.783l-.351,3.147,3.188-.89.283,2.155-2.907.2,1.906,2.539-1.94,1.034L295.8,181.3l-1.171,2.659-2.017-1.017L294.5,180.4l-2.889-.222.334-2.138,3.12.89-.351-3.147Z" transform="translate(-272.537 -175.783)" fill="#001893"/>
                <path id="Path_7094" data-name="Path 7094" d="M312.137,175.783l-.351,3.147,3.189-.89.281,2.155-2.906.2,1.905,2.539-1.94,1.034-1.333-2.676-1.171,2.659-2.017-1.017,1.889-2.539-2.889-.222.334-2.138,3.12.89-.351-3.147Z" transform="translate(-278.179 -175.783)" fill="#001893"/>
                <path id="Path_7095" data-name="Path 7095" d="M327.318,175.783l-.351,3.147,3.188-.89.281,2.155-2.906.2,1.906,2.539-1.94,1.034-1.333-2.676-1.171,2.659-2.018-1.017,1.889-2.539-2.889-.222.334-2.138,3.12.89-.351-3.147Z" transform="translate(-283.821 -175.783)" fill="#001893"/>
              </g>
            </g>
            <path id="Path_7096" data-name="Path 7096" d="M332.6,225.32v21.888s1.99,7.959,3.316,9.949-7.3,16.582-10.612,17.908-14.592-1.99-15.919-8.623-4.116-17.163-6.769-17.826-6.365,15.91-6.365,23.87c0,5.414,7,17.851,11.473,25.252a42.006,42.006,0,0,0,10.175,2.952c.184.006,15.573-1.891,31.5-16.9,2.565-6.287,5.381-12.454,6.414-19.335C357.807,251.188,332.6,225.32,332.6,225.32Z" transform="translate(-236.846 -148.116)" fill="#ffcba7"/>
          </g>
          <circle id="Ellipse_461" data-name="Ellipse 461" cx="17.505" cy="17.505" r="17.505" transform="translate(100.27 51.019) rotate(-22.102)" fill="#f35b59"/>
          <circle id="Ellipse_462" data-name="Ellipse 462" cx="5.304" cy="5.304" r="5.304" transform="translate(114.865 94.676) rotate(-80.758)" fill="#fecc15"/>
        </g>
      </g>
    </g>
  </g>
</svg>
