<svg xmlns="http://www.w3.org/2000/svg" viewBox="0 0 282.71 282.71"><g id="Layer_2" data-name="Layer 2"><g id="Layer_1-2" data-name="Layer 1"><rect width="282.71" height="282.71" fill="none"/><text transform="translate(30.17 233.46)" font-size="47" fill="#fff" font-family="AmerTypewriterITCbyBT-Medium, AmerType Md BT" font-weight="500">MUSLIMS</text><text transform="translate(26.6 182.33)" font-size="172.5" fill="#fff" font-family="AmerTypewriterITCbyBT-Medium, AmerType Md BT" font-weight="500">I</text><path d="M187.58,191,186,190q-3.94-2.34-7.88-4.71c-2-1.2-4-2.38-5.91-3.66-2.86-1.91-5.69-3.89-8.49-5.88-1.53-1.1-3-2.27-4.48-3.46q-3.66-3-7.26-6.09c-1.23-1.06-2.41-2.18-3.56-3.33-2-2-4.08-4-6-6.15-1.63-1.76-3.18-3.59-4.65-5.47a79.56,79.56,0,0,1-7-10.21c-1.13-2-2.32-4-3.51-6a56.58,56.58,0,0,1-6.31-14.85c-.74-2.91-1.47-5.82-2-8.77a48.19,48.19,0,0,1-.4-11.45,52.89,52.89,0,0,1,3-14.71,51.58,51.58,0,0,1,4-9,35.66,35.66,0,0,1,2.82-4.08,31.36,31.36,0,0,1,5-5,30.32,30.32,0,0,1,5.62-3.7,43.57,43.57,0,0,1,4.23-1.93c2-.73,4.14-1.3,6.21-1.95a25.31,25.31,0,0,1,8.47-1,27.58,27.58,0,0,1,5.43.64,22.63,22.63,0,0,1,5.11,1.85,34,34,0,0,1,5.77,3.6,54.43,54.43,0,0,1,6.25,5.8c1.72,1.88,3.11,4.06,4.65,6.11.19.25.39.48.64.77.81-.91,1.6-1.77,2.37-2.64,1-1.09,1.84-2.28,2.9-3.28a60,60,0,0,1,4.65-3.93c1.88-1.43,3.87-2.73,5.78-4.12a23.62,23.62,0,0,1,9.18-3.86,30.41,30.41,0,0,1,8.5-.7,43.16,43.16,0,0,1,10.36,2.3A28.18,28.18,0,0,1,233,62.58a33.36,33.36,0,0,1,6.81,4.09,30.83,30.83,0,0,1,5.57,5.67A46.39,46.39,0,0,1,252,84.26c.56,1.51,1.2,3,1.68,4.52a41.44,41.44,0,0,1,1.61,9.65,67.27,67.27,0,0,1-.59,14.32,66.21,66.21,0,0,1-7.15,21.1c-.75,1.37-1.61,2.67-2.45,4q-2.35,3.69-4.75,7.37a26.51,26.51,0,0,1-1.66,2.17c-1.9,2.29-3.78,4.58-5.72,6.84-1.7,2-3.44,3.92-5.22,5.83s-3.6,3.78-5.44,5.62c-1.33,1.34-2.71,2.64-4.1,3.92s-2.79,2.54-4.24,3.76-3.19,2.66-4.85,3.92-3.47,2.55-5.26,3.73c-2,1.31-4,2.54-6.08,3.79s-4.3,2.59-6.44,3.89Z" fill="#ed2b24"/><text transform="translate(242.99 188.97)" font-size="8" fill="#fff" font-family="ArialMT, Arial">TM</text></g></g></svg>